PathFileType	4	(X/Y/Z)	C:\Users\ebm\Documents\Erivelton\Erivelton\propulsion2.trc
DataRate	CameraRate	NumFrames	NumMarkers	Units	OrigDataRate	OrigDataStartFrame	OrigNumFrames
150.00	150.00	      6	28	mm	150.00	473	      1261
Frame#	Time	IJ			PX			C7			T8			RAC			RAS			RPS			RAI			RPI			RLE			RME			RRS			RUS			R3M			R5M			LAC			LAS			LPS			LAI			LPI			LLE			LME			LRS			LUS			L3M			L5M			RW			LW			V_mid_elbow_r			V_mid_elbow_l			V_mid_wrist_r			V_mid_wrist_l			V_mid_trunk_low			V_mid_trunk_upp			
		X1	Y1	Z1	X2	Y2	Z2	X3	Y3	Z3	X4	Y4	Z4	X5	Y5	Z5	X6	Y6	Z6	X7	Y7	Z7	X8	Y8	Z8	X9	Y9	Z9	X10	Y10	Z10	X11	Y11	Z11	X12	Y12	Z12	X13	Y13	Z13	X14	Y14	Z14	X15	Y15	Z15	X16	Y16	Z16	X17	Y17	Z17	X18	Y18	Z18	X19	Y19	Z19	X20	Y20	Z20	X21	Y21	Z21	X22	Y22	Z22	X23	Y23	Z23	X24	Y24	Z24	X25	Y25	Z25	X26	Y26	Z26	X27	Y27	Z27	X28	Y28	Z28	

473	3.147	830.26831	1011.54218	134.63196	821.71753	839.24139	136.42320	724.47351	1131.26831	136.03844	607.95459	949.45917	139.78668	761.29767	1076.15088	324.64520	689.04962	929.11035	393.81866	661.97754	973.32678	407.83994	626.22321	883.03113	417.49301	603.90601	926.07654	431.99240	531.75153	879.95050	457.17038	498.69937	869.10425	378.43863	596.39319	620.26044	410.73853	561.96948	618.46136	459.05948	626.05768	557.12762	458.67334	587.49731	547.88812	465.16888	708.42175	1076.12390	-46.65627	589.10583	979.01300	-107.04630	625.75757	952.79529	-125.57458	534.33929	922.84576	-136.18936	577.80859	894.89612	-155.88777	509.84003	854.16174	-171.04070	484.02078	835.97156	-91.28877	615.36780	615.02350	-127.08234	577.04907	592.06470	-185.28775	661.49915	564.27325	-198.70677	624.33118	540.26721	-200.66002	751.21771	295.61990	439.93073	741.04797	299.82553	-187.77585	515.22546	874.52740	417.80450	496.93042	845.06665	-131.16473	579.18134	619.36090	434.89902	596.20844	603.54407	-156.18504	714.83606	894.35028	138.10495	777.37091	1071.40527	135.33519	
474	3.153	838.35413	1011.52417	134.25009	829.50311	839.21460	136.24684	732.45410	1131.08545	135.85440	615.87378	949.50262	139.49911	769.57111	1075.62048	324.56949	698.61963	927.36456	393.39349	671.12701	971.09644	407.94202	636.46674	880.37408	417.22476	613.73999	923.12665	432.07397	542.35504	876.11804	457.58264	508.91525	865.02496	378.71741	608.20758	617.32965	410.65216	574.23743	614.42902	459.21381	640.96906	556.17401	459.10150	602.71173	545.48596	465.96814	716.68732	1075.65930	-47.29067	597.99536	976.90894	-108.48106	634.99316	951.00830	-126.83353	543.90332	920.24274	-137.78960	587.83423	892.58838	-157.28662	520.54865	851.19757	-172.75694	494.53244	832.62390	-93.11115	629.36804	613.52393	-128.01894	593.72107	590.98724	-186.74934	678.55194	565.79248	-200.17981	641.76172	541.31158	-203.51595	758.87457	295.54123	439.77286	749.10193	299.81769	-188.00856	525.63513	870.57153	418.15002	507.54056	841.91077	-132.93405	591.22247	615.87933	434.93298	611.54456	602.25555	-157.38414	722.68842	894.35864	137.87299	785.40411	1071.30481	135.05225	
475	3.160	846.40973	1011.48291	133.94255	837.41833	839.17261	136.07201	740.36890	1130.94690	135.64041	624.08545	949.31189	139.20403	777.90540	1075.00012	324.50327	708.11200	925.43854	393.01492	680.44434	968.87073	408.18573	646.72229	877.67804	417.11383	624.00323	920.06500	432.34314	552.88458	872.41150	458.00760	519.17480	861.06042	379.38016	620.29987	614.94684	410.59103	586.82776	611.13330	459.88980	656.56085	556.01733	459.55997	619.10669	543.48718	466.71423	724.96045	1075.22156	-47.99115	606.91199	974.83026	-110.03467	644.45538	949.06311	-127.76202	553.55975	917.62799	-139.51480	597.94965	890.30365	-158.80508	531.49640	848.32599	-174.60809	505.10901	829.23932	-95.16044	643.21674	612.09076	-128.83109	609.54535	590.04840	-188.73090	695.45538	567.29395	-201.61180	659.22333	542.55078	-206.22333	766.55719	295.56485	439.40225	757.33221	299.72217	-188.21297	536.02966	866.73596	418.69388	518.30267	838.78265	-134.88426	603.56378	613.04004	435.24042	626.38104	601.06958	-158.78099	730.75189	894.24225	137.63802	793.38934	1071.21484	134.79147	
476	3.167	854.47021	1011.49170	133.65434	845.23700	839.05322	135.87935	748.09857	1130.91833	135.70738	631.77539	949.42413	138.63562	786.29791	1074.24158	324.47620	717.63055	923.62781	392.69522	689.67963	966.61395	408.34146	656.88593	875.08618	417.18015	633.56116	917.28247	432.85583	563.45154	868.87122	458.70770	529.37903	857.30090	380.11169	632.51196	612.58533	409.68582	600.14417	608.35297	459.94904	672.47083	556.08209	460.00833	636.05817	542.58472	467.71118	733.20813	1074.76978	-48.71432	615.94141	972.70807	-111.64078	653.78363	947.46655	-129.32538	563.62250	914.85034	-142.23611	608.12311	888.04242	-160.20840	542.40625	845.57715	-176.56540	515.67365	825.95679	-97.41113	657.04370	610.47400	-129.10524	625.32056	589.20392	-190.74840	712.18573	568.94556	-202.67682	676.50201	543.66565	-208.68661	774.25195	295.67288	439.41193	765.38055	299.65103	-188.48798	546.41528	863.08606	419.40970	529.03998	835.76697	-136.98827	616.32806	610.46918	434.81741	641.18213	599.83899	-159.92682	738.50616	894.23871	137.25749	801.28436	1071.20508	134.68086	
477	3.173	862.44385	1011.36078	133.38992	853.08716	838.98334	135.55840	755.97467	1130.73022	135.58913	639.81903	949.41077	138.30838	794.73938	1073.40869	324.47510	727.17505	921.67938	392.52969	699.07605	964.41724	408.62650	667.13995	872.53461	417.31665	643.78387	914.37299	433.35132	573.83093	865.41895	459.48047	539.68365	853.66229	381.16586	645.50458	610.68695	408.91949	614.42419	605.54291	460.10483	688.98352	556.95837	460.39127	653.08899	542.01178	468.28055	741.42047	1074.31897	-49.39482	625.00177	970.63214	-113.32619	663.25336	945.61377	-130.63347	573.46545	912.18481	-144.26334	618.44562	885.81110	-161.71745	554.03619	842.52673	-178.05304	526.47833	822.68402	-99.75759	670.63654	609.07233	-130.64790	641.14331	588.36572	-192.72015	729.13770	570.55695	-203.88934	693.23322	544.82648	-211.63034	781.94220	295.53174	438.98773	773.44775	299.57367	-188.68854	556.75732	859.54065	420.32318	540.25726	832.60541	-138.90532	629.96442	608.11493	434.51215	655.88989	598.71899	-161.68404	746.45313	894.19702	136.93338	809.20929	1071.04553	134.48952	
478	3.180	870.54584	1011.28625	133.14537	860.89801	838.84351	135.32088	764.12451	1130.38025	135.27969	647.06097	949.63892	137.80722	803.21149	1072.46582	324.48260	736.71136	919.79578	392.36566	708.38904	962.29041	408.98151	677.20917	870.19830	417.57434	653.81433	911.71838	434.01425	584.40680	862.00751	460.49368	549.74078	850.27533	382.08234	658.56256	608.86743	407.91449	629.27979	603.17004	459.60120	704.90979	557.31982	460.47687	669.51166	542.03107	468.83649	749.73529	1073.80042	-50.08416	634.19727	968.54968	-115.01322	672.89526	943.90924	-132.01776	583.56000	909.47516	-146.35791	628.98676	883.55420	-163.45076	565.19098	839.77374	-180.13756	537.36987	819.46075	-102.20688	685.32098	607.78577	-131.96471	656.91986	587.54950	-194.70915	744.94421	571.16400	-204.89359	709.75555	545.61414	-213.85335	789.56506	295.61960	438.89517	781.44214	299.52994	-188.91551	567.07379	856.14142	421.28802	551.28046	829.61725	-141.17223	643.92120	606.01874	433.75784	671.12042	597.66760	-163.33693	753.97949	894.24121	136.56404	817.33521	1070.83325	134.21252	
